HIERARCHY
ROOT hip
{
  OFFSET 0 0 0
  CHANNELS 6 Xposition Yposition Zposition Zrotation Yrotation Xrotation
  JOINT abdomen
  {
    OFFSET 0 20.6881 -0.73152
    CHANNELS 3 Zrotation Xrotation Yrotation
    JOINT chest
    {
      OFFSET 0 11.7043 -0.48768
      CHANNELS 3 Zrotation Xrotation Yrotation
      JOINT neck
      {
        OFFSET 0 22.1894 -2.19456
        CHANNELS 3 Zrotation Xrotation Yrotation
        JOINT head
        {
          OFFSET -0.24384 7.07133 1.2192
          CHANNELS 3 Zrotation Xrotation Yrotation
          JOINT leftEye
          {
            OFFSET 4.14528 8.04674 8.04672
            CHANNELS 3 Zrotation Xrotation Yrotation
            End Site
            {
              OFFSET 1 0 0
            }
          }
          JOINT rightEye
          {
            OFFSET -3.6576 8.04674 8.04672
            CHANNELS 3 Zrotation Xrotation Yrotation
            End Site
            {
              OFFSET 1 0 0
            }
          }
        }
      }
      JOINT rCollar
      {
        OFFSET -2.68224 19.2634 -4.8768
        CHANNELS 3 Zrotation Xrotation Yrotation
        JOINT rShldr
        {
          OFFSET -8.77824 -1.95073 1.46304
          CHANNELS 3 Zrotation Xrotation Yrotation
          JOINT rForeArm
          {
            OFFSET -28.1742 -1.7115 0.48768
            CHANNELS 3 Zrotation Xrotation Yrotation
            JOINT rHand
            {
              OFFSET -22.5879 0.773209 7.07136
              CHANNELS 3 Zrotation Xrotation Yrotation
              JOINT rThumb1
              {
                OFFSET -1.2192 -0.487915 3.41376
                CHANNELS 3 Zrotation Xrotation Yrotation
                JOINT rThumb2
                {
                  OFFSET -3.37035 -0.52449 3.41376
                  CHANNELS 3 Zrotation Xrotation Yrotation
                  End Site
                  {
                    OFFSET -1.78271 -1.18214 1.43049
                  }
                }
              }
              JOINT rIndex1
              {
                OFFSET -7.75947 0.938293 5.60832
                CHANNELS 3 Zrotation Xrotation Yrotation
                JOINT rIndex2
                {
                  OFFSET -2.54057 -0.884171 1.56538
                  CHANNELS 3 Zrotation Xrotation Yrotation
                  End Site
                  {
                    OFFSET -1.62519 -0.234802 1.16502
                  }
                }
              }
              JOINT rMid1
              {
                OFFSET -8.24714 1.18213 3.41376
                CHANNELS 3 Zrotation Xrotation Yrotation
                JOINT rMid2
                {
                  OFFSET -3.10165 -0.590103 1.0647
                  CHANNELS 3 Zrotation Xrotation Yrotation
                  End Site
                  {
                    OFFSET -2.48547 -0.328903 0.83742
                  }
                }
              }
              JOINT rRing1
              {
                OFFSET -8.82822 0.546677 1.51678
                CHANNELS 3 Zrotation Xrotation Yrotation
                JOINT rRing2
                {
                  OFFSET -2.60934 -0.819778 -0.0198488
                  CHANNELS 3 Zrotation Xrotation Yrotation
                  End Site
                  {
                    OFFSET -2.33842 -0.294052 0.168128
                  }
                }
              }
              JOINT rPinky1
              {
                OFFSET -8.27202 -0.0477905 -0.4584
                CHANNELS 3 Zrotation Xrotation Yrotation
                JOINT rPinky2
                {
                  OFFSET -1.82734 -0.647385 -0.700984
                  CHANNELS 3 Zrotation Xrotation Yrotation
                  End Site
                  {
                    OFFSET -1.69225 -0.51767 -0.607171
                  }
                }
              }
            }
          }
        }
      }
      JOINT lCollar
      {
        OFFSET 2.68224 19.2634 -4.8768
        CHANNELS 3 Zrotation Xrotation Yrotation
        JOINT lShldr
        {
          OFFSET 8.77824 -1.95073 1.46304
          CHANNELS 3 Zrotation Xrotation Yrotation
          JOINT lForeArm
          {
            OFFSET 28.1742 -1.7115 0.48768
            CHANNELS 3 Zrotation Xrotation Yrotation
            JOINT lHand
            {
              OFFSET 22.5879 0.773209 7.07136
              CHANNELS 3 Zrotation Xrotation Yrotation
              JOINT lThumb1
              {
                OFFSET 1.2192 -0.487915 3.41376
                CHANNELS 3 Zrotation Xrotation Yrotation
                JOINT lThumb2
                {
                  OFFSET 3.37035 -0.52449 3.41376
                  CHANNELS 3 Zrotation Xrotation Yrotation
                  End Site
                  {
                    OFFSET 1.78271 -1.18214 1.43049
                  }
                }
              }
              JOINT lIndex1
              {
                OFFSET 7.75947 0.938293 5.60832
                CHANNELS 3 Zrotation Xrotation Yrotation
                JOINT lIndex2
                {
                  OFFSET 2.54057 -0.884171 1.56538
                  CHANNELS 3 Zrotation Xrotation Yrotation
                  End Site
                  {
                    OFFSET 1.62519 -0.234802 1.16502
                  }
                }
              }
              JOINT lMid1
              {
                OFFSET 8.24714 1.18213 3.41376
                CHANNELS 3 Zrotation Xrotation Yrotation
                JOINT lMid2
                {
                  OFFSET 3.10165 -0.590103 1.0647
                  CHANNELS 3 Zrotation Xrotation Yrotation
                  End Site
                  {
                    OFFSET 2.48547 -0.328903 0.83742
                  }
                }
              }
              JOINT lRing1
              {
                OFFSET 8.82822 0.546677 1.51678
                CHANNELS 3 Zrotation Xrotation Yrotation
                JOINT lRing2
                {
                  OFFSET 2.60934 -0.819778 -0.0198488
                  CHANNELS 3 Zrotation Xrotation Yrotation
                  End Site
                  {
                    OFFSET 2.33842 -0.294052 0.168128
                  }
                }
              }
              JOINT lPinky1
              {
                OFFSET 8.27202 -0.0477905 -0.4584
                CHANNELS 3 Zrotation Xrotation Yrotation
                JOINT lPinky2
                {
                  OFFSET 1.82734 -0.647385 -0.700984
                  CHANNELS 3 Zrotation Xrotation Yrotation
                  End Site
                  {
                    OFFSET 1.69225 -0.51767 -0.607171
                  }
                }
              }
            }
          }
        }
      }
    }
  }
  JOINT rButtock
  {
    OFFSET -8.77824 4.35084 1.2192
    CHANNELS 3 Zrotation Xrotation Yrotation
    JOINT rThigh
    {
      OFFSET 0 -1.70687 -2.19456
      CHANNELS 3 Zrotation Xrotation Yrotation
      JOINT rShin
      {
        OFFSET 0 -36.8199 0.73152
        CHANNELS 3 Zrotation Xrotation Yrotation
        JOINT rFoot
        {
          OFFSET 0.73152 -45.1104 -5.12064
          CHANNELS 3 Zrotation Xrotation Yrotation
          End Site
          {
            OFFSET -1.1221 -3.69964 12.103
          }
        }
      }
    }
  }
  JOINT lButtock
  {
    OFFSET 8.77824 4.35084 1.2192
    CHANNELS 3 Zrotation Xrotation Yrotation
    JOINT lThigh
    {
      OFFSET 0 -1.70687 -2.19456
      CHANNELS 3 Zrotation Xrotation Yrotation
      JOINT lShin
      {
        OFFSET 0 -36.8199 0.73152
        CHANNELS 3 Zrotation Xrotation Yrotation
        JOINT lFoot
        {
          OFFSET -0.73152 -45.1104 -5.12064
          CHANNELS 3 Zrotation Xrotation Yrotation
          End Site
          {
            OFFSET 1.1221 -3.69964 12.103
          }
        }
      }
    }
  }
}
MOTION
Frames:	4
Frame Time:	0.00833333
-7.1145 57.7746 -202.969 0.0 0.0 0.0 -1.74428 -0.00324508 -0.0476273 -0.481541 0.00120958 -0.0833912 -5.38725e-14 1.59028e-15 3.47873e-16 -1.61413e-13 9.54166e-15 1.03896e-15 -0.0 0.0 0.0 -0.0 0.0 0.0 -2.65404e-14 -7.105e-17 2.48481e-16 -5.59152e-13 -1.52195e-15 2.78299e-15 -9.65393e-12 2.84441e-12 1.7175e-13 -1.1057e-10 -3.14492e-12 5.50236e-13 -2.60797e-10 -6.51309e-13 1.58392e-12 -4.50393e-10 -1.1291e-12 2.74879e-12 -2.60795e-10 -6.51219e-13 1.57119e-12 7.73091 5.47488 0.417314 -2.60798e-10 -6.51914e-13 1.5871e-12 2.90554 0.965183 0.102902 -2.6079e-10 -6.51616e-13 1.58153e-12 10.2786 0.731801 0.0259123 -2.60801e-10 -6.49628e-13 1.59028e-12 2.22167 -0.733487 -0.20892 -2.67357e-14 -6.67792e-17 4.96962e-17 -5.62322e-13 -1.17407e-15 7.95139e-16 -9.67301e-12 -2.92869e-12 1.46306e-13 -1.1056e-10 2.65199e-12 5.725e-13 -2.60811e-10 -6.05675e-13 1.58074e-12 -4.50384e-10 -1.0464e-12 2.74641e-12 -2.60816e-10 -6.05498e-13 1.5871e-12 -7.73091 5.47488 -0.417314 -2.60812e-10 -6.05896e-13 1.58074e-12 -2.90554 0.965183 -0.102902 -2.60815e-10 -6.05995e-13 1.5863e-12 -10.2786 0.731801 -0.0259123 -2.60804e-10 -6.0351e-13 1.57437e-12 -2.22167 -0.733487 0.20892 -2.03217e-16 0.0 -3.88251e-19 -0.871205 -1.92409 -0.00259607 -0.00879396 -2.07862 -0.0723547 -0.451748 3.99793 0.131392 2.03217e-16 0.0 3.88251e-19 -1.78908 -6.943 0.172922 -0.00356218 7.01267 -0.0919422 0.488111 -0.0743701 -0.0538924
-4.25155 54.7728 -203.535 1.3955 44.9836 2.3354 -3.50813 2.15821 -0.976229 1.03546 -2.77563 -0.21204 -3.85774 5.78507 -4.12841 7.08922 -6.83193 -7.20751 -0.0 0.0 0.0 -0.0 0.0 0.0 1.20769e-14 -4.83215e-14 -1.96564e-13 16.2161 -0.0797891 6.72813 -19.0055 -16.6672 15.1468 0.0491448 4.9208 0.682393 -6.57663e-10 3.61209e-10 1.40844e-09 -1.11873e-09 6.59661e-10 2.43715e-09 -6.5766e-10 3.61209e-10 1.40843e-09 7.73091 5.47488 0.417314 -6.57662e-10 3.61211e-10 1.40845e-09 2.90554 0.965183 0.102902 -6.57658e-10 3.61208e-10 1.40844e-09 10.2786 0.731801 0.0259123 -6.57667e-10 3.61212e-10 1.40845e-09 2.22167 -0.733487 -0.20892 1.19217e-14 -4.83197e-14 -1.96779e-13 -20.2508 21.7733 -0.487474 25.5013 -23.2658 -14.2708 -1.02877 -22.8485 2.35936 -1.15146e-10 9.74427e-09 5.14535e-10 -2.34474e-10 1.56273e-08 8.74694e-10 -1.1515e-10 9.74427e-09 5.14542e-10 -7.73091 5.47488 -0.417314 -1.15146e-10 9.74428e-09 5.14535e-10 -2.90554 0.965183 -0.102902 -1.1515e-10 9.74428e-09 5.14538e-10 -10.2786 0.731801 -0.0259123 -1.15141e-10 9.74428e-09 5.14527e-10 -2.22167 -0.733487 0.20892 -2.03217e-16 0.0 -3.88251e-19 -6.34334 -19.3418 -11.0112 -0.103371 16.5832 0.134109 -0.338922 3.78201 2.57331 2.03217e-16 0.0 3.88251e-19 4.05217 -12.7303 8.38709 -0.710675 26.9079 -0.42507 1.13614 -8.59345 6.14679
-4.27394 54.7829 -203.541 1.2451 44.9491 2.2708 -5.29682 4.44084 -1.96327 2.62489 -5.71177 -0.349539 -7.01507 11.8016 -8.63328 12.687 -13.6932 -15.1618 -0.0 0.0 0.0 -0.0 0.0 0.0 5.42244e-14 -9.97948e-14 -4.12711e-13 33.3792 -0.159252 13.8414 -28.7336 -30.2107 35.1308 -0.0281743 10.1199 1.42064 -1.10664e-09 7.38339e-10 2.95555e-09 -1.87537e-09 1.35054e-09 5.11437e-09 -1.10664e-09 7.38339e-10 2.95554e-09 7.73091 5.47488 0.417314 -1.10664e-09 7.38345e-10 2.95556e-09 2.90554 0.965183 0.102902 -1.10664e-09 7.38338e-10 2.95555e-09 10.2786 0.731801 0.0259123 -1.10664e-09 7.38343e-10 2.95556e-09 2.22167 -0.733487 -0.20892 5.41106e-14 -9.97957e-14 -4.12944e-13 -41.1073 44.7836 -1.31093 36.5671 -42.4621 -37.8661 0.784733 -46.8511 6.54735 3.08811e-11 2.01789e-08 1.08123e-09 -2.15097e-11 3.23161e-08 1.83737e-09 3.08785e-11 2.01789e-08 1.08124e-09 -7.73091 5.47488 -0.417314 3.08823e-11 2.0179e-08 1.08123e-09 -2.90554 0.965183 -0.102902 3.08772e-11 2.0179e-08 1.08123e-09 -10.2786 0.731801 -0.0259123 3.08843e-11 2.0179e-08 1.08122e-09 -2.22167 -0.733487 0.20892 -2.03217e-16 0.0 -3.88251e-19 -20.6673 -35.3863 -26.53 -0.377872 36.31 0.422877 -0.198489 3.5322 5.14863 2.03217e-16 0.0 3.88251e-19 12.093 -18.2919 17.559 -1.08528 47.9375 -1.02002 3.89421 -17.2636 13.1623
-4.2741 54.7998 -203.557 1.2484 44.9574 2.2709 -6.82459 6.47412 -2.84954 4.03166 -8.32909 -0.473587 -8.99765 16.9869 -12.8936 15.997 -19.1659 -22.7966 -0.0 0.0 0.0 -0.0 0.0 0.0 8.93114e-14 -1.44822e-13 -5.9019e-13 48.7033 -0.226225 20.1845 -29.269 -34.7038 56.8384 -0.214326 14.7539 2.10921 -1.45139e-09 1.08493e-09 4.22216e-09 -2.45541e-09 1.98124e-09 7.30596e-09 -1.45139e-09 1.08493e-09 4.22215e-09 7.73091 5.47488 0.417314 -1.45139e-09 1.08494e-09 4.22217e-09 2.90554 0.965183 0.102902 -1.45139e-09 1.08493e-09 4.22216e-09 10.2786 0.731801 0.0259123 -1.4514e-09 1.08493e-09 4.22216e-09 2.22167 -0.733487 -0.20892 8.92366e-14 -1.44826e-13 -5.90436e-13 -58.3419 65.287 -3.24988 31.2025 -47.3383 -69.0634 10.3264 -67.6704 17.3963 1.76183e-10 2.9234e-08 1.54044e-09 1.97347e-10 4.6884e-08 2.61859e-09 1.76181e-10 2.9234e-08 1.54045e-09 -7.73091 5.47488 -0.417314 1.76185e-10 2.9234e-08 1.54044e-09 -2.90554 0.965183 -0.102902 1.76179e-10 2.92341e-08 1.54044e-09 -10.2786 0.731801 -0.0259123 1.76184e-10 2.92341e-08 1.54043e-09 -2.22167 -0.733487 0.20892 -2.03217e-16 0.0 -3.88251e-19 -42.8611 -44.6408 -46.6225 -0.910182 53.9037 0.899987 -0.0578689 3.33324 7.45363 2.03217e-16 0.0 3.88251e-19 20.8713 -22.4092 26.3161 -0.464105 66.6818 -2.41229 8.30722 -24.3809 20.2105
